<svg width="48" height="48" viewBox="0 0 48 48" fill="none" xmlns="http://www.w3.org/2000/svg">
<path d="M24 10C23.4333 10 22.9587 9.80801 22.576 9.42401C22.1933 9.04001 22.0013 8.56534 22 8.00001V4.00001C22 3.43334 22.192 2.95867 22.576 2.57601C22.96 2.19334 23.4347 2.00134 24 2.00001C24.5653 1.99867 25.0407 2.19067 25.426 2.57601C25.8113 2.96134 26.0027 3.43601 26 4.00001V8.00001C26 8.56667 25.808 9.04201 25.424 9.42601C25.04 9.81001 24.5653 10.0013 24 10ZM33.9 14.1C33.5333 13.7333 33.35 13.2753 33.35 12.726C33.35 12.1767 33.5333 11.7013 33.9 11.3L36.7 8.45001C37.1 8.05001 37.5747 7.85001 38.124 7.85001C38.6733 7.85001 39.1487 8.05001 39.55 8.45001C39.9167 8.81667 40.1 9.28334 40.1 9.85001C40.1 10.4167 39.9167 10.8833 39.55 11.25L36.7 14.1C36.3333 14.4667 35.8667 14.65 35.3 14.65C34.7333 14.65 34.2667 14.4667 33.9 14.1ZM40 26C39.4333 26 38.958 25.808 38.574 25.424C38.19 25.04 37.9987 24.5653 38 24C38.0013 23.4347 38.1933 22.96 38.576 22.576C38.9587 22.192 39.4333 22 40 22H44C44.5667 22 45.042 22.192 45.426 22.576C45.81 22.96 46.0013 23.4347 46 24C45.9987 24.5653 45.8067 25.0407 45.424 25.426C45.0413 25.8113 44.5667 26.0027 44 26H40ZM24 46C23.4333 46 22.9587 45.808 22.576 45.424C22.1933 45.04 22.0013 44.5653 22 44V40C22 39.4333 22.192 38.9587 22.576 38.576C22.96 38.1933 23.4347 38.0013 24 38C24.5653 37.9987 25.0407 38.1907 25.426 38.576C25.8113 38.9613 26.0027 39.436 26 40V44C26 44.5667 25.808 45.042 25.424 45.426C25.04 45.81 24.5653 46.0013 24 46ZM11.3 14.1L8.45001 11.3C8.05001 10.9 7.85001 10.4167 7.85001 9.85001C7.85001 9.28334 8.05001 8.81667 8.45001 8.45001C8.81667 8.08334 9.28334 7.90001 9.85001 7.90001C10.4167 7.90001 10.8833 8.08334 11.25 8.45001L14.1 11.3C14.4667 11.6667 14.65 12.1333 14.65 12.7C14.65 13.2667 14.4667 13.7333 14.1 14.1C13.7 14.4667 13.2333 14.65 12.7 14.65C12.1667 14.65 11.7 14.4667 11.3 14.1ZM36.7 39.55L33.9 36.7C33.5333 36.3 33.35 35.8253 33.35 35.276C33.35 34.7267 33.5333 34.268 33.9 33.9C34.2667 33.532 34.7253 33.3487 35.276 33.35C35.8267 33.3513 36.3013 33.5347 36.7 33.9L39.55 36.7C39.95 37.0667 40.142 37.5333 40.126 38.1C40.11 38.6667 39.918 39.15 39.55 39.55C39.15 39.95 38.6667 40.15 38.1 40.15C37.5333 40.15 37.0667 39.95 36.7 39.55ZM4.00001 26C3.43334 26 2.95867 25.808 2.57601 25.424C2.19334 25.04 2.00134 24.5653 2.00001 24C1.99867 23.4347 2.19067 22.96 2.57601 22.576C2.96134 22.192 3.43601 22 4.00001 22H8.00001C8.56667 22 9.04201 22.192 9.42601 22.576C9.81001 22.96 10.0013 23.4347 10 24C9.99867 24.5653 9.80667 25.0407 9.42401 25.426C9.04134 25.8113 8.56667 26.0027 8.00001 26H4.00001ZM8.45001 39.55C8.08334 39.1833 7.90001 38.7167 7.90001 38.15C7.90001 37.5833 8.08334 37.1167 8.45001 36.75L11.3 33.9C11.6667 33.5333 12.1247 33.35 12.674 33.35C13.2233 33.35 13.6987 33.5333 14.1 33.9C14.5 34.3 14.7 34.7753 14.7 35.326C14.7 35.8767 14.5 36.3513 14.1 36.75L11.3 39.55C10.9 39.95 10.4167 40.15 9.85001 40.15C9.28334 40.15 8.81667 39.95 8.45001 39.55ZM24 36C20.6667 36 17.8333 34.8333 15.5 32.5C13.1667 30.1667 12 27.3333 12 24C12 20.6667 13.1667 17.8333 15.5 15.5C17.8333 13.1667 20.6667 12 24 12C27.3333 12 30.1667 13.1667 32.5 15.5C34.8333 17.8333 36 20.6667 36 24C36 27.3333 34.8333 30.1667 32.5 32.5C30.1667 34.8333 27.3333 36 24 36Z" fill="#0A0A35"/>
</svg>
